<?xml version="1.0" encoding="UTF-8" standalone="no"?>
<!-- Created with Inkscape (http://www.inkscape.org/) -->
<svg
   xmlns:dc="http://purl.org/dc/elements/1.1/"
   xmlns:cc="http://creativecommons.org/ns#"
   xmlns:rdf="http://www.w3.org/1999/02/22-rdf-syntax-ns#"
   xmlns:svg="http://www.w3.org/2000/svg"
   xmlns="http://www.w3.org/2000/svg"
   xmlns:sodipodi="http://sodipodi.sourceforge.net/DTD/sodipodi-0.dtd"
   xmlns:inkscape="http://www.inkscape.org/namespaces/inkscape"
   width="85"
   height="29.770435"
   id="svg2"
   sodipodi:version="0.32"
   inkscape:version="0.46"
   version="1.0"
   sodipodi:docname="Trill Line.svg"
   inkscape:output_extension="org.inkscape.output.svg.inkscape">
  <defs
     id="defs4">
    <inkscape:perspective
       sodipodi:type="inkscape:persp3d"
       inkscape:vp_x="0 : 526.18109 : 1"
       inkscape:vp_y="0 : 1000 : 0"
       inkscape:vp_z="744.09448 : 526.18109 : 1"
       inkscape:persp3d-origin="372.04724 : 350.78739 : 1"
       id="perspective10" />
  </defs>
  <sodipodi:namedview
     id="base"
     pagecolor="#ffffff"
     bordercolor="#666666"
     borderopacity="1.0"
     gridtolerance="10000"
     guidetolerance="10"
     objecttolerance="10"
     inkscape:pageopacity="0.0"
     inkscape:pageshadow="2"
     inkscape:zoom="3.2075342"
     inkscape:cx="44.285714"
     inkscape:cy="22.857143"
     inkscape:document-units="px"
     inkscape:current-layer="layer1"
     showgrid="false"
     inkscape:window-width="743"
     inkscape:window-height="669"
     inkscape:window-x="634"
     inkscape:window-y="159" />
  <metadata
     id="metadata7">
    <rdf:RDF>
      <cc:Work
         rdf:about="">
        <dc:format>image/svg+xml</dc:format>
        <dc:type
           rdf:resource="http://purl.org/dc/dcmitype/StillImage" />
      </cc:Work>
    </rdf:RDF>
  </metadata>
  <g
     inkscape:label="Layer 1"
     inkscape:groupmode="layer"
     id="layer1"
     transform="translate(-19.887149,-536.21683)">
    <path
       style="font-size:117.81673431px;font-style:normal;font-variant:normal;font-weight:normal;font-stretch:normal;text-align:start;line-height:100%;writing-mode:lr-tb;text-anchor:start;fill:#000000;fill-opacity:1;stroke:none;stroke-width:1px;stroke-linecap:butt;stroke-linejoin:miter;stroke-opacity:1;font-family:Emmentaler;-inkscape-font-specification:Emmentaler"
       d="M 33.73262,537.23167 C 33.375552,537.47601 33.074839,537.66396 32.830482,537.79551 C 32.598015,538.12616 31.647151,539.54481 29.977886,542.05143 C 28.308685,544.55807 26.639452,547.07097 24.970182,549.59013 C 23.300986,552.1093 22.350122,553.553 22.117586,553.92123 C 21.89444,554.43808 21.833357,554.95493 21.934338,555.47178 C 22.0354,555.98863 22.284427,556.4491 22.681422,556.85319 C 22.923442,557.08811 23.228853,557.29485 23.597657,557.4734 C 23.96654,557.65194 24.300142,557.74592 24.598467,557.75532 C 24.896867,557.74357 25.230469,557.6543 25.599276,557.4875 C 25.968156,557.32069 26.273567,557.14684 26.515511,556.96595 C 26.588375,556.88607 26.809211,556.56656 27.178019,556.00743 C 27.546897,555.44829 27.965076,554.79047 28.432556,554.034 L 30.236833,551.44036 L 35.762432,557.98086 C 38.595733,561.43199 40.371817,563.52289 41.090686,564.25354 C 41.809599,564.98416 42.401626,565.29897 42.866774,565.19796 C 43.268526,565.2003 43.649115,565.13922 44.008542,565.01472 C 44.368006,564.89019 44.66402,564.68815 44.896586,564.4086 C 45.042259,564.30052 45.540313,563.61451 46.390751,562.35059 C 47.24122,561.08664 48.246728,559.55489 49.407278,557.75532 L 53.692437,551.44036 L 59.218035,557.98086 C 62.051314,561.43199 63.827397,563.52289 64.54629,564.25354 C 65.265178,564.98416 65.857207,565.29897 66.322377,565.19796 C 66.724106,565.2003 67.104695,565.13922 67.464145,565.01472 C 67.823585,564.89019 68.1196,564.68815 68.352189,564.4086 C 68.497839,564.30052 68.995893,563.61451 69.846355,562.35059 C 70.6968,561.08664 71.702309,559.55489 72.862882,557.75532 L 77.14804,551.44036 L 82.67364,557.98086 C 85.506895,561.43199 87.282977,563.52289 88.001894,564.25354 C 88.720759,564.98416 89.312787,565.29897 89.777981,565.19796 C 90.125651,565.19795 90.47335,565.14157 90.821077,565.02882 C 91.168747,564.91603 91.460063,564.74689 91.695025,564.52136 C 91.930275,564.26102 92.900628,562.86464 94.60609,560.33226 C 96.311488,557.79986 98.016918,555.24241 99.722386,552.6599 C 101.42778,550.0774 102.39814,548.5808 102.63346,548.17011 C 102.97172,547.51229 102.97172,546.7981 102.63346,546.02753 C 102.26927,545.34388 101.75711,544.87871 101.097,544.63202 C 100.43681,544.38535 99.783692,544.39945 99.13767,544.67431 C 98.780537,544.91865 98.479818,545.1066 98.235531,545.23815 C 98.162666,545.31803 97.941831,545.63753 97.573021,546.19667 C 97.204142,546.75581 96.785964,547.41363 96.318486,548.17011 L 94.514208,550.76375 L 88.98861,544.22324 C 86.155305,540.77211 84.379221,538.68121 83.660352,537.95056 C 82.94144,537.21994 82.349412,536.90513 81.884268,537.00614 C 81.482516,537.0038 81.101927,537.06489 80.742498,537.18938 C 80.383033,537.31391 80.08702,537.51596 79.854456,537.79551 C 79.708778,537.90358 79.210722,538.58959 78.360286,539.85351 C 77.509817,541.11745 76.504311,542.64921 75.343763,544.44878 L 71.058605,550.76375 L 65.533006,544.22324 C 62.699725,540.77211 60.923641,538.68121 60.204748,537.95056 C 59.485859,537.21994 58.893832,536.90513 58.428665,537.00614 C 58.026935,537.0038 57.646346,537.06489 57.286894,537.18938 C 56.927453,537.31391 56.631439,537.51596 56.398853,537.79551 C 56.253199,537.90358 55.755142,538.58959 54.904682,539.85351 C 54.054237,541.11745 53.048731,542.64921 51.888159,544.44878 L 47.603001,550.76375 L 42.077402,544.22324 C 39.194809,540.77211 37.404629,538.68121 36.706858,537.95056 C 36.009137,537.21994 35.431206,536.90513 34.973061,537.00614 C 34.702916,537.00145 34.48208,537.01085 34.310551,537.03432 C 34.13908,537.05783 33.946437,537.12362 33.73262,537.23167 L 33.73262,537.23167 z"
       id="text2383" />
  </g>
</svg>
